<?xml version="1.0" standalone="no"?>
<!DOCTYPE svg PUBLIC "-//W3C//DTD SVG 20010904//EN"
 "http://www.w3.org/TR/2001/REC-SVG-20010904/DTD/svg10.dtd">
<svg version="1.0" xmlns="http://www.w3.org/2000/svg"
 width="256.000000pt" height="256.000000pt" viewBox="0 0 256.000000 256.000000"
 preserveAspectRatio="xMidYMid meet">
<metadata>
Created by potrace 1.11, written by Peter Selinger 2001-2013
</metadata>
<g transform="translate(0.000000,256.000000) scale(0.100000,-0.100000)"
fill="#000000" stroke="none">
<path d="M1161 1863 c-59 -12 -178 -64 -217 -95 -62 -49 -135 -134 -166 -194
-167 -318 -15 -696 326 -809 318 -106 656 85 732 414 93 401 -268 767 -675
684z m227 -208 l51 -15 -15 -37 c-26 -61 -5 -140 50 -186 34 -29 68 -40 124
-39 42 1 52 -2 53 -16 6 -100 -1 -145 -34 -225 -26 -60 -109 -141 -180 -173
-53 -25 -74 -29 -147 -28 -97 1 -110 3 -176 37 -250 129 -268 475 -34 638 82
56 206 74 308 44z"/>
<path d="M408 1143 c-32 -20 -51 -60 -44 -94 28 -149 162 -364 301 -482 74
-64 222 -157 247 -157 8 0 18 -4 24 -9 30 -28 188 -62 314 -66 409 -15 779
236 920 624 17 45 30 89 30 97 0 30 -31 81 -56 93 -73 33 -119 -1 -159 -114
-15 -44 -35 -91 -44 -105 -9 -14 -23 -38 -31 -55 -28 -57 -180 -200 -260 -244
-77 -42 -174 -77 -245 -89 -74 -11 -238 -5 -305 12 -223 57 -423 229 -506 435
-14 37 -33 83 -42 104 -25 62 -89 84 -144 50z"/>
</g>
</svg>
